<svg width="512" height="512" viewBox="0 0 512 512" fill="none" xmlns="http://www.w3.org/2000/svg">
<g clip-path="url(#clip0_140_7770)">
<rect width="512" height="512" rx="130" fill="#E55428"/>
<path d="M118.851 512.24L118.695 509.159L103.546 246.659C114.806 86.9385 354.923 89.0832 381.38 249.33L396.422 509.169L396.656 512.249L118.851 512.24Z" fill="black"/>
<path d="M191.138 392.342L187.56 330.302C187.043 319.091 175.208 312.101 162.057 312.101C150.652 312.101 138.583 319.968 139.402 331.199L142.931 392.342H191.138Z" fill="#C1C5C6"/>
<path d="M276.652 392.342L273.075 330.302C272.558 319.091 260.713 312.101 247.562 312.101C236.157 312.101 224.098 319.968 224.916 331.199L228.446 392.342H276.652Z" fill="#C1C5C6"/>
</g>
<defs>
<clipPath id="clip0_140_7770">
<rect width="512" height="512" rx="130" fill="white"/>
</clipPath>
</defs>
</svg>
