<svg width="2131" height="965" viewBox="0 0 2131 965" fill="none" xmlns="http://www.w3.org/2000/svg">
<path fill-rule="evenodd" clip-rule="evenodd" d="M586.107 682H668.65C691.723 682 713.852 672.834 730.168 656.518L762.114 624.617C753.274 626.827 744.024 628 734.5 628H639.347L586.107 682Z" fill="#62BE19"/>
<path d="M734.571 417C788.379 417 832 460.652 832 514.5C832 568.348 788.379 612 734.571 612L638 612L638 417L734.571 417Z" fill="#CEF23F"/>
<path fill-rule="evenodd" clip-rule="evenodd" d="M498 616.186L443 671.186L443 389.471L498 334.601V616.186Z" fill="#FF9330"/>
<path d="M514 328H622V612H514V328Z" fill="#FF5C16"/>
<path fill-rule="evenodd" clip-rule="evenodd" d="M455.312 682H563.638L616.877 628H509.312L455.312 682Z" fill="#CF2500"/>
<path d="M746 347C746 376.823 721.823 401 692 401C662.177 401 638 376.823 638 347C638 317.177 662.177 293 692 293C721.823 293 746 317.177 746 347Z" fill="#60CFFF"/>
<path fill-rule="evenodd" clip-rule="evenodd" d="M692.029 401L692 401L691.971 401C662.161 400.984 638 376.814 638 347C638 317.177 662.177 293 692 293C721.823 293 746 317.177 746 347C746 376.814 721.839 400.984 692.029 401ZM736.524 401.018C752.083 388.179 762 368.747 762 347C762 308.34 730.66 277 692 277C666.09 277 643.468 291.077 631.365 312H505.031C500.528 312 496.21 313.786 493.023 316.966L431.111 378.741C428.479 381.367 427 384.933 427 388.651L427 688.586C427 689 427 689.5 427 690C427 693.5 427.917 694.723 428.5 695.5C430 697.5 433 698 435.5 698H668.65C695.967 698 722.165 687.148 741.482 667.832L810.644 598.67C833.587 577.901 848 547.884 848 514.5C848 452.492 798.274 402.097 736.524 401.018ZM443 671.186L498 616.186V334.601L443 389.471L443 671.186ZM563.639 682H455.314L509.314 628H616.878L563.639 682ZM668.65 682H586.108L639.347 628H734.5C744.024 628 753.274 626.827 762.114 624.617L730.168 656.518C713.852 672.834 691.724 682 668.65 682ZM805.843 580.95L805.846 580.953C822.073 563.54 832 540.179 832 514.5C832 460.652 788.348 417 734.5 417H692.031H692H691.969L638 417L638 612H734.5C760.085 612 783.369 602.145 800.762 586.024L805.843 580.95ZM622 347.047L622 347L622 346.953V328H514V612H622V401V347.047Z" fill="black"/>
<path fill-rule="evenodd" clip-rule="evenodd" d="M1707.62 361.811C1707.62 378.827 1693.83 392.621 1676.81 392.621C1659.79 392.621 1646 378.827 1646 361.811C1646 344.794 1659.79 331 1676.81 331C1693.83 331 1707.62 344.794 1707.62 361.811ZM1651.9 628V415.25H1701.11V628H1651.9ZM986.529 628V364.19H1087.54C1157.47 364.19 1187.07 388.24 1187.07 432.27C1187.07 464.09 1174.49 482.96 1149.7 492.95C1177.45 502.2 1192.25 520.33 1192.25 552.89C1192.25 600.99 1160.43 628 1091.98 628H986.529ZM1033.89 403.41V473.34H1089.39C1121.95 473.34 1139.34 462.61 1139.34 437.45C1139.34 414.14 1124.54 403.41 1089.02 403.41H1033.89ZM1033.89 512.56V586.56H1085.69C1127.5 586.56 1142.67 573.61 1142.67 548.82C1142.67 522.92 1124.54 512.56 1086.43 512.56H1033.89ZM1321.73 633.55C1377.6 633.55 1412.01 608.39 1424.22 565.1H1372.05C1364.65 583.6 1349.48 593.59 1323.58 593.59C1288.43 593.59 1266.97 574.35 1262.9 539.57H1427.18V517C1427.18 489.62 1419.78 463.35 1402.76 443C1385.74 422.65 1359.84 410.07 1323.21 410.07C1278.44 410.07 1245.88 428.94 1228.12 462.24C1219.24 479.26 1214.8 498.13 1214.8 521.07V526.25C1214.8 592.11 1249.95 633.55 1321.73 633.55ZM1263.27 501.46C1268.82 467.79 1289.91 448.55 1323.58 448.55C1357.62 448.55 1375.38 468.9 1378.71 501.46H1263.27ZM1436.4 591.37V628H1623.62V586.93H1498.56L1622.88 453.73V415.25H1444.17V455.58H1564.05L1436.4 591.37Z" fill="black"/>
</svg>
