<svg width="965" height="965" viewBox="0 0 965 965" fill="none" xmlns="http://www.w3.org/2000/svg">
<rect width="965" height="965" fill="black"/>
<path fill-rule="evenodd" clip-rule="evenodd" d="M222.086 588.125H266.745C279.229 588.125 291.202 583.165 300.03 574.338L317.314 557.078C312.531 558.273 307.527 558.908 302.373 558.908H250.891L222.086 588.125Z" fill="#62BE19"/>
<path d="M302.411 444.747C331.524 444.747 355.125 468.365 355.125 497.499C355.125 526.633 331.524 550.251 302.411 550.251L250.162 550.251L250.162 444.747L302.411 444.747Z" fill="#CEF23F"/>
<path fill-rule="evenodd" clip-rule="evenodd" d="M174.416 552.516L144.658 582.274L144.658 429.852L174.416 400.165V552.516Z" fill="#FF9330"/>
<path d="M183.07 396.594H241.504V550.251H183.07V396.594Z" fill="#FF5C16"/>
<path fill-rule="evenodd" clip-rule="evenodd" d="M151.318 588.125H209.928L238.733 558.908H180.535L151.318 588.125Z" fill="#CF2500"/>
<path d="M308.595 406.873C308.595 423.009 295.515 436.09 279.379 436.09C263.243 436.09 250.162 423.009 250.162 406.873C250.162 390.738 263.243 377.657 279.379 377.657C295.515 377.657 308.595 390.738 308.595 406.873Z" fill="#60CFFF"/>
<path fill-rule="evenodd" clip-rule="evenodd" d="M279.394 436.09L279.378 436.09L279.362 436.09C263.234 436.082 250.161 423.004 250.161 406.873C250.161 390.738 263.242 377.657 279.378 377.657C295.514 377.657 308.595 390.738 308.595 406.873C308.595 423.004 295.522 436.082 279.394 436.09ZM303.467 436.1C311.886 429.153 317.251 418.64 317.251 406.873C317.251 385.957 300.295 369 279.378 369C265.359 369 253.12 376.616 246.571 387.937H181.445C176.943 387.937 172.625 389.723 169.438 392.903L140.111 422.164C137.479 424.79 136 428.356 136 432.074L136 591.688C136 591.912 136 592.183 136 592.453C136 594.347 136.496 595.008 136.812 595.429C137.623 596.511 139.246 596.782 140.599 596.782H266.744C281.524 596.782 295.699 590.91 306.15 580.459L343.57 543.039C355.983 531.802 363.781 515.561 363.781 497.499C363.781 463.95 336.878 436.684 303.467 436.1ZM144.657 582.274L174.414 552.516V400.165L144.657 429.852L144.657 582.274ZM209.928 588.125H151.319L180.536 558.908H238.733L209.928 588.125ZM266.744 588.125H222.085L250.89 558.908H302.372C307.526 558.908 312.53 558.273 317.313 557.078L300.029 574.338C291.201 583.165 279.228 588.125 266.744 588.125ZM340.973 533.452L340.974 533.453C349.754 524.032 355.125 511.393 355.125 497.499C355.125 468.365 331.507 444.747 302.372 444.747H279.395H279.378H279.361L250.161 444.747L250.161 550.251H302.372C316.215 550.251 328.813 544.919 338.223 536.197L340.973 533.452ZM241.505 406.899L241.504 406.873L241.505 406.848V396.593H183.071V550.251H241.505V436.09V406.899Z" fill="black"/>
<path fill-rule="evenodd" clip-rule="evenodd" d="M828.876 414.887C828.876 424.093 821.413 431.557 812.206 431.557C803 431.557 795.536 424.093 795.536 414.887C795.536 405.68 803 398.217 812.206 398.217C821.413 398.217 828.876 405.68 828.876 414.887ZM798.729 558.908V443.8H825.354V558.908H798.729ZM438.732 558.908V416.174H493.384C531.219 416.174 547.234 429.186 547.234 453.009C547.234 470.225 540.428 480.434 527.015 485.839C542.029 490.844 550.037 500.653 550.037 518.27C550.037 544.294 532.821 558.908 495.786 558.908H438.732ZM464.356 437.394V475.229H494.385C512.001 475.229 521.41 469.424 521.41 455.811C521.41 443.199 513.403 437.394 494.185 437.394H464.356ZM464.356 496.449V536.487H492.383C515.004 536.487 523.212 529.48 523.212 516.068C523.212 502.055 513.403 496.449 492.783 496.449H464.356ZM620.091 561.911C650.32 561.911 668.937 548.298 675.543 524.876H647.317C643.313 534.885 635.105 540.291 621.092 540.291C602.074 540.291 590.464 529.881 588.261 511.063H677.145V498.852C677.145 484.038 673.141 469.824 663.932 458.814C654.724 447.804 640.711 440.997 620.892 440.997C596.669 440.997 579.053 451.207 569.444 469.224C564.639 478.432 562.237 488.642 562.237 501.054V503.856C562.237 539.49 581.255 561.911 620.091 561.911ZM588.462 490.444C591.464 472.227 602.875 461.817 621.092 461.817C639.51 461.817 649.119 472.827 650.92 490.444H588.462ZM682.137 539.089V558.908H783.432V536.687H715.768L783.031 464.62V443.8H686.341V465.62H751.201L682.137 539.089Z" fill="white"/>
</svg>
